<?xml version="1.0" encoding="utf-8"?>
<!-- Generator: Adobe Illustrator 24.3.0, SVG Export Plug-In . SVG Version: 6.00 Build 0)  -->
<svg version="1.1" id="Capa_1" xmlns="http://www.w3.org/2000/svg" xmlns:xlink="http://www.w3.org/1999/xlink" x="0px" y="0px"
	 viewBox="0 0 606.8 606.8" style="enable-background:new 0 0 606.8 606.8;" xml:space="preserve">
<style type="text/css">
	.st0{fill:#333333;}
</style>
<g>
	<g>
		<g>
			<path class="st0" d="M477.9,79.9h-50.8c-11.9-7.8-24.9-13.5-36.9-17.6c-5.6-14.7-14.5-27.9-26-38.3
				C347.3,8.9,325.7,0.5,303.4,0.5c-22.3,0-43.9,8.4-60.7,23.6c-11.5,10.4-20.5,23.6-26,38.3c-12,4.1-24.9,9.8-36.9,17.6h-50.8
				c-32.1,0-58.1,26.1-58.1,58.1v410.1c0,32.1,26.1,58.1,58.1,58.1h349c32.1,0,58.1-26.1,58.1-58.1V138.1
				C536,106,509.9,79.9,477.9,79.9z M253.9,87.4c0.5-2.6,1.1-5,1.9-7.4c7.1-21.3,25.7-36.6,47.6-36.6s40.5,15.2,47.6,36.6
				c0.8,2.4,1.5,4.9,1.9,7.4c1.1,5.8,5.6,10.4,11.3,11.9c20.8,5.5,37.7,13.7,48.5,23.5c1.7,1.6,3.3,3.1,4.6,4.8
				c6.9,8,1.2,20.4-9.4,20.4H198.8c-10.6,0-16.2-12.4-9.4-20.4c1.4-1.6,2.9-3.2,4.6-4.8c10.8-9.8,27.7-18,48.5-23.5
				C248.3,97.7,252.8,93.2,253.9,87.4z M493.2,548.2c0,8.5-6.9,15.3-15.3,15.3h-349c-8.4,0-15.3-6.8-15.3-15.3V138.1
				c0-8.4,6.8-15.3,15.3-15.3h16.2c-0.5,2.1-0.9,4.3-1.1,6.5c-1.2,10.1,0.5,20.3,4.8,29.5c4.3,9.2,11,17.1,19.4,22.7
				c9.1,6.1,19.7,9.3,30.7,9.3H408c11,0,21.7-3.2,30.7-9.3c8.4-5.6,15.1-13.5,19.4-22.7c4.3-9.2,5.9-19.5,4.8-29.5
				c-0.3-2.2-0.6-4.3-1.1-6.5h16.2c8.5,0,15.3,6.8,15.3,15.3L493.2,548.2L493.2,548.2z"/>
			<path class="st0" d="M477.9,606.8h-349c-32.3,0-58.6-26.3-58.6-58.6V138.1c0-32.3,26.3-58.6,58.6-58.6h50.7
				c10.5-6.8,22.8-12.7,36.6-17.5c5.7-14.8,14.7-28,26.1-38.3C259.3,8.4,281,0,303.4,0s44.1,8.4,61.1,23.7
				C375.9,34,384.9,47.2,390.6,62c13.8,4.7,26.1,10.6,36.6,17.5h50.7c32.3,0,58.6,26.3,58.6,58.6v410.1
				C536.5,580.5,510.2,606.8,477.9,606.8z M128.9,80.4c-31.8,0-57.6,25.9-57.6,57.6v410.1c0,31.8,25.9,57.6,57.6,57.6h349
				c31.8,0,57.6-25.9,57.6-57.6V138.1c0-31.8-25.9-57.6-57.6-57.6h-51l-0.1-0.1c-10.5-6.9-22.9-12.8-36.7-17.5l-0.2-0.1l-0.1-0.2
				c-5.6-14.7-14.6-27.9-25.9-38.1C347,9.3,325.6,1,303.4,1S259.8,9.3,243,24.5c-11.4,10.2-20.3,23.4-25.9,38.1l-0.1,0.2l-0.2,0.1
				c-13.9,4.7-26.2,10.6-36.7,17.5l-0.1,0.1L128.9,80.4L128.9,80.4z M477.9,564h-349c-8.7,0-15.8-7.1-15.8-15.8V138.1
				c0-8.7,7.1-15.8,15.8-15.8h16.8l-0.1,0.6c-0.5,2.1-0.9,4.3-1.1,6.4c-1.2,10,0.5,20.1,4.7,29.3c4.2,9.1,10.9,16.9,19.2,22.5
				c9,6,19.5,9.2,30.5,9.2H408c10.9,0,21.5-3.2,30.5-9.2c8.3-5.6,15-13.4,19.2-22.5c4.2-9.2,5.9-19.3,4.7-29.3
				c-0.2-2.1-0.6-4.3-1.1-6.4l-0.1-0.6h16.8c8.7,0,15.8,7.1,15.8,15.8v410.1C493.7,556.9,486.6,564,477.9,564z M128.9,123.3
				c-8.2,0-14.8,6.6-14.8,14.8v410.1c0,8.2,6.6,14.8,14.8,14.8h349c8.2,0,14.8-6.6,14.8-14.8V138.1c0-8.2-6.6-14.8-14.8-14.8h-15.5
				c0.4,2,0.8,4,1,5.9c1.2,10.2-0.5,20.5-4.8,29.8c-4.3,9.3-11.1,17.2-19.5,22.9c-9.2,6.1-19.9,9.4-31,9.4H198.8
				c-11.1,0-21.9-3.2-31-9.4c-8.5-5.7-15.2-13.6-19.5-22.9c-4.3-9.3-6-19.6-4.8-29.8c0.2-2,0.6-3.9,1-5.9L128.9,123.3L128.9,123.3z
				 M408,148.5H198.8c-5.1,0-9.5-2.9-11.7-7.4c-2.1-4.6-1.4-9.9,1.9-13.8c1.4-1.6,3-3.2,4.7-4.8c10.9-9.9,27.7-18.1,48.7-23.6
				c5.6-1.5,9.9-6,10.9-11.5c0.5-2.5,1.1-5,2-7.5c7.3-22.1,26.6-36.9,48.1-36.9s40.7,14.8,48.1,36.9c0.8,2.5,1.5,5,2,7.5
				c1.1,5.5,5.4,10,10.9,11.5c21,5.5,37.8,13.7,48.7,23.6c1.7,1.6,3.3,3.2,4.7,4.8c3.3,3.9,4,9.2,1.9,13.8
				C417.5,145.6,413.1,148.5,408,148.5z M303.4,43.8c-21,0-39.9,14.6-47.1,36.2c-0.8,2.4-1.5,4.9-1.9,7.4
				c-1.1,5.9-5.7,10.7-11.7,12.3c-20.8,5.5-37.5,13.6-48.3,23.4c-1.7,1.6-3.3,3.1-4.6,4.7c-3.1,3.6-3.7,8.5-1.8,12.7
				c2,4.2,6.1,6.9,10.7,6.9H408c4.7,0,8.8-2.6,10.7-6.9c2-4.3,1.3-9.1-1.8-12.7c-1.4-1.6-2.9-3.2-4.6-4.7
				c-10.8-9.8-27.5-17.9-48.3-23.4c-5.9-1.6-10.5-6.4-11.7-12.3c-0.5-2.5-1.1-4.9-1.9-7.4C343.3,58.4,324.4,43.8,303.4,43.8z"/>
		</g>
		<g>
			<path class="st0" d="M303.4,109.3c11.9,0,21.6-9.7,21.6-21.6c0-2.7-0.5-5.3-1.4-7.7c-3.1-8.1-11-13.9-20.2-13.9
				c-9.2,0-17.1,5.8-20.2,13.9c-0.9,2.4-1.4,5-1.4,7.7C281.8,99.6,291.5,109.3,303.4,109.3z"/>
			<path d="M303.4,109.8c-12.2,0-22.1-9.9-22.1-22.1c0-2.7,0.5-5.4,1.5-7.9c3.3-8.5,11.6-14.2,20.7-14.2s17.4,5.7,20.7,14.2
				c1,2.5,1.5,5.2,1.5,7.9C325.5,99.8,315.6,109.8,303.4,109.8z M303.4,66.5c-8.7,0-16.6,5.5-19.7,13.6c-0.9,2.4-1.4,5-1.4,7.5
				c0,11.6,9.5,21.1,21.1,21.1s21.1-9.5,21.1-21.1c0-2.6-0.5-5.1-1.4-7.5C320,72,312.1,66.5,303.4,66.5z"/>
		</g>
		<g>
			<path class="st0" d="M187.7,278.2h108.9c11.8,0,21.4-9.6,21.4-21.4c0-11.8-9.6-21.4-21.4-21.4H187.7c-11.8,0-21.4,9.6-21.4,21.4
				C166.3,268.6,175.9,278.2,187.7,278.2z"/>
			<path class="st0" d="M296.7,278.7H187.7c-12.1,0-21.9-9.8-21.9-21.9s9.8-21.9,21.9-21.9h108.9c12.1,0,21.9,9.8,21.9,21.9
				S308.7,278.7,296.7,278.7z M187.7,235.9c-11.5,0-20.9,9.4-20.9,20.9s9.4,20.9,20.9,20.9h108.9c11.5,0,20.9-9.4,20.9-20.9
				c0-11.5-9.4-20.9-20.9-20.9H187.7z"/>
		</g>
		<g>
			<path class="st0" d="M419.1,350.9H187.7c-11.8,0-21.4,9.6-21.4,21.4s9.6,21.4,21.4,21.4h231.4c11.8,0,21.4-9.6,21.4-21.4
				S430.9,350.9,419.1,350.9z"/>
			<path class="st0" d="M419.1,394.2H187.7c-12.1,0-21.9-9.8-21.9-21.9s9.8-21.9,21.9-21.9h231.4c12.1,0,21.9,9.8,21.9,21.9
				S431.2,394.2,419.1,394.2z M187.7,351.4c-11.5,0-20.9,9.4-20.9,20.9s9.4,20.9,20.9,20.9h231.4c11.5,0,20.9-9.4,20.9-20.9
				s-9.4-20.9-20.9-20.9H187.7z"/>
		</g>
		<g>
			<path class="st0" d="M352.9,466.9H187.7c-11.8,0-21.4,9.6-21.4,21.4s9.6,21.4,21.4,21.4h165.2c11.8,0,21.4-9.6,21.4-21.4
				S364.7,466.9,352.9,466.9z"/>
			<path class="st0" d="M352.9,510.2H187.7c-12.1,0-21.9-9.8-21.9-21.9s9.8-21.9,21.9-21.9h165.2c12.1,0,21.9,9.8,21.9,21.9
				S365,510.2,352.9,510.2z M187.7,467.4c-11.5,0-20.9,9.4-20.9,20.9s9.4,20.9,20.9,20.9h165.2c11.5,0,20.9-9.4,20.9-20.9
				s-9.4-20.9-20.9-20.9H187.7z"/>
		</g>
	</g>
</g>
</svg>
