<svg xmlns="http://www.w3.org/2000/svg" width="35" height="36" viewBox="0 0 35 36">
  <g id="Group_32" data-name="Group 32" transform="translate(-0.021 -0.086)">
    <g id="Rectangle_10" data-name="Rectangle 10" transform="translate(0.021 0.086)" fill="#fff" stroke="#e1e1e1" stroke-width="1">
      <rect width="35" height="36" rx="9" stroke="none"/>
      <rect x="0.5" y="0.5" width="34" height="35" rx="8.5" fill="none"/>
    </g>
    <path id="Icon_awesome-biking" data-name="Icon awesome-biking" d="M16.367,3.928A1.964,1.964,0,1,0,14.4,1.964,1.964,1.964,0,0,0,16.367,3.928ZM16.2,8.879a1.305,1.305,0,0,0,.818.286h2.619a1.309,1.309,0,0,0,0-2.619h-2.16L14.567,4.215a1.307,1.307,0,0,0-1.67.028L8.314,8.17a1.309,1.309,0,0,0,.126,2.084l3.344,2.231v4.537a1.309,1.309,0,0,0,2.619,0V11.784A1.309,1.309,0,0,0,13.82,10.7L12.128,9.567l2.383-2.043Zm4.746,1.6a5.237,5.237,0,1,0,5.237,5.237A5.237,5.237,0,0,0,20.95,10.475Zm0,7.856a2.619,2.619,0,1,1,2.619-2.619A2.619,2.619,0,0,1,20.95,18.331ZM5.237,10.475a5.237,5.237,0,1,0,5.237,5.237A5.237,5.237,0,0,0,5.237,10.475Zm0,7.856a2.619,2.619,0,1,1,2.619-2.619A2.619,2.619,0,0,1,5.237,18.331Z" transform="translate(4.651 5.955)" fill="#707070"/>
  </g>
</svg>
