<svg xmlns="http://www.w3.org/2000/svg" width="906" height="765" viewBox="0 0 906 765">
  <g id="Group_412" data-name="Group 412" transform="translate(-318 -339)">
    <text id="feasty" transform="translate(318 1026)" fill="#ffa011" font-size="295" font-family="CaslonGraphique, Caslon Graphique"><tspan x="0" y="0">feasty</tspan></text>
    <g id="sandwich-svgrepo-com" transform="translate(463 339)">
      <path id="Path_470" data-name="Path 470" d="M586.039,274.866h-3.1V192.233H28.753v82.633H25.646a18.046,18.046,0,1,0,0,36.092c46.68,0,46.68,22.407,93.357,22.407s46.68-22.407,93.36-22.407,46.683,22.407,93.364,22.407l.116,0,.116,0c46.682,0,46.682-22.407,93.363-22.407S446,333.365,492.682,333.365s46.677-22.407,93.357-22.407a18.046,18.046,0,1,0,0-36.092Z" transform="translate(1.525 -53.881)" fill="#e0a03d"/>
      <path id="Path_471" data-name="Path 471" d="M101.1,261.056H25.646a18.046,18.046,0,1,0,0,36.092c46.68,0,46.68,22.407,93.357,22.407s46.68-22.407,93.36-22.407,46.683,22.407,93.364,22.407l.116,0,.116,0c46.682,0,46.682-22.407,93.363-22.407S446,319.555,492.682,319.555s46.677-22.407,93.357-22.407a18.046,18.046,0,1,0,0-36.092H128.107" transform="translate(1.525 -40.071)" fill="#60a771"/>
      <path id="Path_472" data-name="Path 472" d="M583.471,291.156c-44.1.815-44.994,22.368-90.789,22.368-46.679,0-46.679-22.407-93.358-22.407s-46.682,22.407-93.363,22.407l-.116,0-.116,0c-46.682,0-46.682-22.407-93.364-22.407S165.684,313.525,119,313.525c-45.793,0-46.691-21.552-90.785-22.368A26,26,0,0,0,33.6,342.586h544.5a26,26,0,0,0,5.38-51.429Z" transform="translate(1.525 -34.039)" fill="#b7364a"/>
      <path id="Path_473" data-name="Path 473" d="M25.218,333.985v29.522H59.511L189.5,408.958l129.987-45.451H579.4V333.985Z" transform="translate(5.06 -25.437)" fill="#f6e088"/>
      <path id="Path_474" data-name="Path 474" d="M189.5,404.024,59.511,358.573H25.218v82.633H579.4V358.573H319.488Z" transform="translate(5.06 -20.503)" fill="#e0a03d"/>
      <ellipse id="Ellipse_247" data-name="Ellipse 247" cx="31.468" cy="31.468" rx="31.468" ry="31.468" transform="translate(275.905 9.13)" fill="#60a771"/>
      <path id="Path_475" data-name="Path 475" d="M614.737,316.034c0-.735-.037-1.46-.095-2.182-.01-.113-.016-.226-.026-.34-.065-.687-.155-1.362-.268-2.03-.023-.128-.047-.258-.071-.385-.124-.671-.268-1.336-.439-1.99-.022-.084-.049-.168-.072-.252-.177-.64-.373-1.273-.594-1.893-.02-.06-.037-.119-.06-.179-.232-.635-.49-1.257-.767-1.87-.05-.113-.1-.226-.152-.339q-.418-.892-.893-1.747l-.18-.311c-.335-.582-.684-1.154-1.063-1.709-.026-.037-.055-.074-.08-.113-.369-.538-.759-1.06-1.166-1.569-.061-.076-.118-.153-.179-.228-.413-.507-.844-.994-1.293-1.47-.088-.094-.177-.186-.265-.28-.453-.467-.92-.92-1.4-1.353-.078-.07-.158-.134-.236-.2-.5-.435-1.007-.856-1.537-1.256l-.065-.052c-.539-.4-1.1-.784-1.668-1.148-.1-.062-.193-.126-.292-.186-.553-.346-1.121-.669-1.7-.975-.109-.059-.221-.114-.331-.171-.6-.3-1.2-.588-1.82-.848l-.2-.078q-.917-.375-1.863-.682c-.07-.023-.136-.049-.207-.071-.646-.205-1.305-.382-1.973-.538-.067-.016-.13-.037-.2-.054V206.228H316.495V157.142a40.593,40.593,0,1,0-18.25,0v49.085H21.153v83.305c-.072.017-.14.04-.211.058-.659.156-1.311.33-1.951.533-.078.024-.151.052-.227.077-.624.2-1.238.43-1.839.675-.071.029-.143.055-.213.084-.617.258-1.22.543-1.813.844-.113.058-.225.114-.337.174q-.866.456-1.7.971c-.1.062-.2.126-.294.189-.569.365-1.127.743-1.667,1.148-.022.016-.04.031-.061.048-.532.4-1.042.824-1.544,1.261-.077.068-.155.132-.231.2q-.729.654-1.407,1.358c-.088.09-.175.181-.261.274-.449.477-.885.968-1.3,1.474-.06.074-.115.149-.174.221-.408.513-.8,1.037-1.174,1.579-.024.035-.052.071-.076.106-.378.556-.73,1.13-1.066,1.713q-.09.153-.176.306-.481.857-.9,1.751c-.052.111-.1.222-.151.333-.276.615-.535,1.239-.767,1.874-.022.058-.037.115-.059.172q-.333.936-.6,1.9c-.024.083-.049.166-.072.249-.173.654-.316,1.318-.441,1.992-.023.127-.047.256-.07.384q-.169,1-.268,2.03c-.011.113-.017.227-.025.34C.037,314.574,0,315.3,0,316.034A27.11,27.11,0,0,0,8.982,336.2,35.013,35.013,0,0,0,21.153,391.77v115.06H593.584V391.77a35.013,35.013,0,0,0,12.17-55.57A27.1,27.1,0,0,0,614.737,316.034ZM285.024,117.6a22.344,22.344,0,1,1,22.344,22.342A22.368,22.368,0,0,1,285.024,117.6ZM151.723,224.48l-29.695,29.7,12.9,12.9,42.6-42.6h78.356l-29.695,29.7,12.906,12.9,42.6-42.6h78.357l-29.7,29.7,12.9,12.9,42.6-42.6h78.357l-29.7,29.7,12.9,12.9,42.6-42.6h85.3v64.384h-445.7v18.25H587.564a8.922,8.922,0,1,1,0,17.844c-25.417,0-38.81,6.43-50.628,12.1-11.039,5.3-21.467,10.305-42.728,10.305s-31.691-5.005-42.731-10.305c-11.817-5.673-25.211-12.1-50.627-12.1s-38.812,6.428-50.629,12.1c-2.759,1.323-5.48,2.631-8.341,3.843-8.583,3.642-18.43,6.458-34.362,6.462l-.148,0-.237,0c-.215,0-.414-.008-.628-.01-15.511-.089-25.2-2.867-33.657-6.457-2.858-1.211-5.573-2.517-8.329-3.839-11.818-5.673-25.214-12.1-50.631-12.1s-38.81,6.428-50.627,12.1c-11.04,5.3-21.469,10.305-42.733,10.305S88.84,342.355,77.8,337.055c-11.818-5.672-25.213-12.1-50.629-12.1a8.922,8.922,0,0,1,0-17.844h75.46v-18.25H39.4V224.475H151.723Zm423.613,264.1H39.4V424.2H63.023l131.538,45.992L326.1,424.2H575.333v64.384ZM323,405.948,194.562,450.856,66.121,405.948H39.4V394.675H575.336v11.273Zm256.618-29.522H35.12A16.872,16.872,0,0,1,30.7,343.271c18.895.525,28.758,5.25,39.187,10.251,11.427,5.477,24.329,11.661,48.121,12.069.827.014,1.663.022,2.517.022,3.177,0,6.165-.1,8.988-.287s5.476-.46,7.983-.806c1.881-.259,3.678-.56,5.4-.894,12.065-2.344,20.5-6.391,28.256-10.114,8.28-3.974,16.214-7.783,28.635-9.44a106.388,106.388,0,0,1,14.095-.864c21.266,0,31.694,5.006,42.735,10.305,11.817,5.673,25.213,12.1,50.629,12.1h.233c25.418,0,38.812-6.428,50.629-12.1,11.041-5.3,21.47-10.305,42.734-10.305s31.691,5.006,42.731,10.305c11.817,5.673,25.211,12.1,50.627,12.1.894,0,1.77-.01,2.637-.026,23.713-.429,36.593-6.6,48-12.065,10.429-5,20.294-9.727,39.19-10.251a16.872,16.872,0,0,1-4.415,33.155Z" transform="translate(0 -77.003)" fill="#452a02"/>
    </g>
  </g>
</svg>
