<svg xmlns="http://www.w3.org/2000/svg" width="9.856" height="9.856" viewBox="0 0 9.856 9.856">
  <path id="Icon_ionic-ios-close-circle" data-name="Icon ionic-ios-close-circle" d="M8.3,3.375A4.928,4.928,0,1,0,13.231,8.3,4.927,4.927,0,0,0,8.3,3.375Zm1.249,6.712L8.3,8.839,7.054,10.087a.379.379,0,1,1-.535-.535L7.768,8.3,6.519,7.054a.379.379,0,1,1,.535-.535L8.3,7.768,9.552,6.519a.379.379,0,0,1,.535.535L8.839,8.3l1.249,1.249a.38.38,0,0,1,0,.535A.376.376,0,0,1,9.552,10.087Z" transform="translate(-3.375 -3.375)" fill="#fff"/>
</svg>
