<svg xmlns="http://www.w3.org/2000/svg" width="35" height="36" viewBox="0 0 35 36">
  <g id="Group_31" data-name="Group 31" transform="translate(0.026 -0.086)">
    <g id="Path_13" data-name="Path 13" transform="translate(-0.026 0.086)" fill="#fff">
      <path d="M 26 35.5 L 9 35.5 C 4.313079833984375 35.5 0.5 31.68692016601563 0.5 27 L 0.5 9 C 0.5 4.313079833984375 4.313079833984375 0.5 9 0.5 L 26 0.5 C 30.68692016601563 0.5 34.5 4.313079833984375 34.5 9 L 34.5 27 C 34.5 31.68692016601563 30.68692016601563 35.5 26 35.5 Z" stroke="none"/>
      <path d="M 9 1 C 4.588790893554688 1 1 4.588790893554688 1 9 L 1 27 C 1 31.41120910644531 4.588790893554688 35 9 35 L 26 35 C 30.41120910644531 35 34 31.41120910644531 34 27 L 34 9 C 34 4.588790893554688 30.41120910644531 1 26 1 L 9 1 M 9 0 L 26 0 C 30.97056007385254 0 35 4.029439926147461 35 9 L 35 27 C 35 31.97056007385254 30.97056007385254 36 26 36 L 9 36 C 4.029439926147461 36 0 31.97056007385254 0 27 L 0 9 C 0 4.029439926147461 4.029439926147461 0 9 0 Z" stroke="none" fill="#e2e2e2"/>
    </g>
    <path id="Icon_awesome-walking" data-name="Icon awesome-walking" d="M8.512,3.928A1.964,1.964,0,1,0,6.548,1.964,1.965,1.965,0,0,0,8.512,3.928Zm3.867,6.1-.953-.483-.4-1.2A4.461,4.461,0,0,0,6.846,5.237,9,9,0,0,0,3.029,6.269,3.9,3.9,0,0,0,1,8.159l-.274.556A1.314,1.314,0,0,0,1.3,10.471a1.292,1.292,0,0,0,1.739-.585l.274-.556A1.3,1.3,0,0,1,3.99,8.7l1.1-.442-.622,2.484a2.628,2.628,0,0,0,.61,2.406l2.451,2.676a2.641,2.641,0,0,1,.61,1.133l.749,3a1.309,1.309,0,1,0,2.541-.634l-.908-3.642a2.618,2.618,0,0,0-.61-1.133L8.045,12.513l.7-2.811.225.675a2.61,2.61,0,0,0,1.3,1.514l.953.483a1.292,1.292,0,0,0,1.739-.585,1.325,1.325,0,0,0-.585-1.759ZM3.012,15.786a2.539,2.539,0,0,1-.581.88L.385,18.716a1.309,1.309,0,1,0,1.849,1.854l2.431-2.431a2.66,2.66,0,0,0,.581-.88L5.8,15.876c-2.263-2.467-1.584-1.71-1.94-2.2l-.847,2.107Z" transform="translate(11.055 5.955)" fill="#707070"/>
  </g>
</svg>
